<svg xmlns="http://www.w3.org/2000/svg" viewBox="0 0 500 500">
<style type="text/css">
	.st0 {
		fill: #212121;
	}
	@media (prefers-color-scheme: dark) {
		.st0 {
			fill: #ffffff;
		}
	}
</style>
<path class="st0" d="M101.6,388.5c0.9,0.9,0.9,1.8,0,2.7s-1.8,1.8-2.7,1.8H3.3c-0.9,0-1.8-0.9-2.7-1.8c-0.9-0.9-0.9-1.8,0-2.7
	l17.9-30.4V141.9L0.7,111.5c-0.9-0.9-0.9-1.8,0-2.7c0-0.9,0.9-1.8,2.7-1.8h96.5c0.9,0,1.8,0.9,2.7,1.8c0.9,0.9,0.9,1.8,0,2.7
	l-17.9,30.4V359L101.6,388.5z M188.3,388.5c0.9,0.9,0.9,1.8,0,2.7c0,1.8-0.9,1.8-2.7,1.8h-31.3c-0.9,0-1.8-0.9-2.7-1.8
	c-0.9-0.9-0.9-1.8,0-2.7l16.1-25c0.9-0.9,1.8-1.8,2.7-1.8l0,0c0.9,0,1.8,0.9,2.7,1.8L188.3,388.5z M325.8,304.5c0,0.9,0,1.8,0,2.7
	l-31.3,64.4c0,0.9-0.9,0.9-1.8,1.8h-0.9H291c-0.9,0-1.8-0.9-2.7-1.8L185.6,160.6l-8.9,1.8c-0.9,0-1.8,0-2.7-0.9
	c-0.9-0.9-0.9-1.8-0.9-2.7V141l-18.8-29.5c-0.9-0.9-0.9-1.8,0-2.7c0-0.9,0.9-1.8,2.7-1.8h73.2c0.9,0,1.8,0.9,2.7,1.8L325.8,304.5z
	 M499.1,388.5c0.9,0.9,0.9,1.8,0,2.7c0,1.8-0.9,1.8-1.8,1.8h-96.5c-0.9,0-1.8-0.9-2.7-1.8c-0.9-0.9-0.9-1.8,0-2.7l17.9-30.4V161.5
	l-9.8-1.8c-0.9,0-1.8-0.9-1.8-1.8s0-1.8,0-2.7l22.3-46.5c0.9-0.9,1.8-1.8,2.7-1.8h67c0.9,0,1.8,0.9,2.7,1.8c0.9,0.9,0.9,1.8,0.9,2.7
	l-17.9,30.4V359L499.1,388.5z"/>
</svg>
