<svg xmlns="http://www.w3.org/2000/svg" xmlns:xlink="http://www.w3.org/1999/xlink" width="56" zoomAndPan="magnify" viewBox="0 0 42 30.000001" height="40" preserveAspectRatio="xMidYMid meet" version="1.0"><defs><g/><clipPath id="5f2724c8e3"><path d="M 0.675781 1 L 7 1 L 7 9 L 0.675781 9 Z M 0.675781 1 " clip-rule="nonzero"/></clipPath></defs><g clip-path="url(#5f2724c8e3)"><g fill="#ffffff" fill-opacity="1"><g transform="translate(0.677419, 8.274514)"><g><path d="M 0.203125 -6.640625 L 2.40625 -6.640625 L 2.78125 -1.65625 L 2.78125 -0.6875 L 3.015625 -0.6875 L 3.015625 -1.65625 L 3.390625 -6.640625 L 5.59375 -6.640625 L 5.59375 0 L 4.453125 0 L 4.453125 -4.4375 L 4.578125 -5.953125 L 4.34375 -5.953125 L 3.84375 0 L 1.96875 0 L 1.453125 -5.953125 L 1.234375 -5.953125 L 1.34375 -4.4375 L 1.34375 0 L 0.203125 0 Z M 0.203125 -6.640625 "/></g></g></g></g><g fill="#ffffff" fill-opacity="1"><g transform="translate(6.483309, 8.274514)"><g><path d="M 0.828125 -1.140625 L 2.421875 -1.140625 L 2.421875 -3.5625 L 0.9375 -3.5625 L 0.9375 -4.703125 L 3.609375 -4.703125 L 3.609375 -1.140625 L 4.984375 -1.140625 L 4.984375 0 L 0.828125 0 Z M 3.90625 -6.09375 C 3.90625 -5.96875 3.878906 -5.847656 3.828125 -5.734375 C 3.785156 -5.628906 3.722656 -5.535156 3.640625 -5.453125 C 3.554688 -5.378906 3.457031 -5.316406 3.34375 -5.265625 C 3.238281 -5.222656 3.125 -5.203125 3 -5.203125 C 2.875 -5.203125 2.757812 -5.222656 2.65625 -5.265625 C 2.550781 -5.316406 2.457031 -5.378906 2.375 -5.453125 C 2.289062 -5.535156 2.222656 -5.628906 2.171875 -5.734375 C 2.128906 -5.847656 2.109375 -5.96875 2.109375 -6.09375 C 2.109375 -6.21875 2.128906 -6.335938 2.171875 -6.453125 C 2.222656 -6.566406 2.289062 -6.660156 2.375 -6.734375 C 2.457031 -6.816406 2.550781 -6.878906 2.65625 -6.921875 C 2.757812 -6.972656 2.875 -7 3 -7 C 3.125 -7 3.238281 -6.972656 3.34375 -6.921875 C 3.457031 -6.878906 3.554688 -6.816406 3.640625 -6.734375 C 3.722656 -6.660156 3.785156 -6.566406 3.828125 -6.453125 C 3.878906 -6.335938 3.90625 -6.21875 3.90625 -6.09375 Z M 3.90625 -6.09375 "/></g></g></g><g fill="#ffffff" fill-opacity="1"><g transform="translate(12.2892, 8.274514)"><g><path d="M 2.234375 -3.375 C 2.234375 -3.226562 2.3125 -3.117188 2.46875 -3.046875 C 2.632812 -2.984375 2.925781 -2.929688 3.34375 -2.890625 C 3.820312 -2.835938 4.210938 -2.691406 4.515625 -2.453125 C 4.816406 -2.210938 4.96875 -1.878906 4.96875 -1.453125 L 4.96875 -1.40625 C 4.96875 -0.9375 4.796875 -0.5625 4.453125 -0.28125 C 4.117188 -0.0078125 3.640625 0.125 3.015625 0.125 C 2.648438 0.125 2.335938 0.078125 2.078125 -0.015625 C 1.816406 -0.109375 1.597656 -0.222656 1.421875 -0.359375 C 1.253906 -0.503906 1.125 -0.660156 1.03125 -0.828125 C 0.945312 -1.003906 0.890625 -1.175781 0.859375 -1.34375 L 1.953125 -1.703125 C 2.003906 -1.503906 2.109375 -1.328125 2.265625 -1.171875 C 2.429688 -1.023438 2.679688 -0.953125 3.015625 -0.953125 C 3.316406 -0.953125 3.519531 -0.992188 3.625 -1.078125 C 3.738281 -1.171875 3.796875 -1.273438 3.796875 -1.390625 C 3.796875 -1.453125 3.78125 -1.507812 3.75 -1.5625 C 3.71875 -1.613281 3.664062 -1.660156 3.59375 -1.703125 C 3.519531 -1.753906 3.414062 -1.796875 3.28125 -1.828125 C 3.15625 -1.859375 2.992188 -1.882812 2.796875 -1.90625 C 2.265625 -1.945312 1.84375 -2.082031 1.53125 -2.3125 C 1.21875 -2.550781 1.0625 -2.894531 1.0625 -3.34375 L 1.0625 -3.390625 C 1.0625 -3.628906 1.109375 -3.835938 1.203125 -4.015625 C 1.304688 -4.191406 1.441406 -4.335938 1.609375 -4.453125 C 1.773438 -4.578125 1.960938 -4.671875 2.171875 -4.734375 C 2.390625 -4.804688 2.613281 -4.84375 2.84375 -4.84375 C 3.144531 -4.84375 3.40625 -4.804688 3.625 -4.734375 C 3.84375 -4.660156 4.023438 -4.5625 4.171875 -4.4375 C 4.328125 -4.320312 4.453125 -4.191406 4.546875 -4.046875 C 4.640625 -3.910156 4.710938 -3.773438 4.765625 -3.640625 L 3.6875 -3.203125 C 3.625 -3.378906 3.519531 -3.515625 3.375 -3.609375 C 3.238281 -3.703125 3.0625 -3.75 2.84375 -3.75 C 2.644531 -3.75 2.492188 -3.710938 2.390625 -3.640625 C 2.285156 -3.566406 2.234375 -3.476562 2.234375 -3.375 Z M 2.234375 -3.375 "/></g></g></g><g fill="#ffffff" fill-opacity="1"><g transform="translate(18.095091, 8.274514)"><g><path d="M 2.234375 -3.375 C 2.234375 -3.226562 2.3125 -3.117188 2.46875 -3.046875 C 2.632812 -2.984375 2.925781 -2.929688 3.34375 -2.890625 C 3.820312 -2.835938 4.210938 -2.691406 4.515625 -2.453125 C 4.816406 -2.210938 4.96875 -1.878906 4.96875 -1.453125 L 4.96875 -1.40625 C 4.96875 -0.9375 4.796875 -0.5625 4.453125 -0.28125 C 4.117188 -0.0078125 3.640625 0.125 3.015625 0.125 C 2.648438 0.125 2.335938 0.078125 2.078125 -0.015625 C 1.816406 -0.109375 1.597656 -0.222656 1.421875 -0.359375 C 1.253906 -0.503906 1.125 -0.660156 1.03125 -0.828125 C 0.945312 -1.003906 0.890625 -1.175781 0.859375 -1.34375 L 1.953125 -1.703125 C 2.003906 -1.503906 2.109375 -1.328125 2.265625 -1.171875 C 2.429688 -1.023438 2.679688 -0.953125 3.015625 -0.953125 C 3.316406 -0.953125 3.519531 -0.992188 3.625 -1.078125 C 3.738281 -1.171875 3.796875 -1.273438 3.796875 -1.390625 C 3.796875 -1.453125 3.78125 -1.507812 3.75 -1.5625 C 3.71875 -1.613281 3.664062 -1.660156 3.59375 -1.703125 C 3.519531 -1.753906 3.414062 -1.796875 3.28125 -1.828125 C 3.15625 -1.859375 2.992188 -1.882812 2.796875 -1.90625 C 2.265625 -1.945312 1.84375 -2.082031 1.53125 -2.3125 C 1.21875 -2.550781 1.0625 -2.894531 1.0625 -3.34375 L 1.0625 -3.390625 C 1.0625 -3.628906 1.109375 -3.835938 1.203125 -4.015625 C 1.304688 -4.191406 1.441406 -4.335938 1.609375 -4.453125 C 1.773438 -4.578125 1.960938 -4.671875 2.171875 -4.734375 C 2.390625 -4.804688 2.613281 -4.84375 2.84375 -4.84375 C 3.144531 -4.84375 3.40625 -4.804688 3.625 -4.734375 C 3.84375 -4.660156 4.023438 -4.5625 4.171875 -4.4375 C 4.328125 -4.320312 4.453125 -4.191406 4.546875 -4.046875 C 4.640625 -3.910156 4.710938 -3.773438 4.765625 -3.640625 L 3.6875 -3.203125 C 3.625 -3.378906 3.519531 -3.515625 3.375 -3.609375 C 3.238281 -3.703125 3.0625 -3.75 2.84375 -3.75 C 2.644531 -3.75 2.492188 -3.710938 2.390625 -3.640625 C 2.285156 -3.566406 2.234375 -3.476562 2.234375 -3.375 Z M 2.234375 -3.375 "/></g></g></g><g fill="#ffffff" fill-opacity="1"><g transform="translate(23.900981, 8.274514)"><g><path d="M 0.828125 -1.140625 L 2.421875 -1.140625 L 2.421875 -3.5625 L 0.9375 -3.5625 L 0.9375 -4.703125 L 3.609375 -4.703125 L 3.609375 -1.140625 L 4.984375 -1.140625 L 4.984375 0 L 0.828125 0 Z M 3.90625 -6.09375 C 3.90625 -5.96875 3.878906 -5.847656 3.828125 -5.734375 C 3.785156 -5.628906 3.722656 -5.535156 3.640625 -5.453125 C 3.554688 -5.378906 3.457031 -5.316406 3.34375 -5.265625 C 3.238281 -5.222656 3.125 -5.203125 3 -5.203125 C 2.875 -5.203125 2.757812 -5.222656 2.65625 -5.265625 C 2.550781 -5.316406 2.457031 -5.378906 2.375 -5.453125 C 2.289062 -5.535156 2.222656 -5.628906 2.171875 -5.734375 C 2.128906 -5.847656 2.109375 -5.96875 2.109375 -6.09375 C 2.109375 -6.21875 2.128906 -6.335938 2.171875 -6.453125 C 2.222656 -6.566406 2.289062 -6.660156 2.375 -6.734375 C 2.457031 -6.816406 2.550781 -6.878906 2.65625 -6.921875 C 2.757812 -6.972656 2.875 -7 3 -7 C 3.125 -7 3.238281 -6.972656 3.34375 -6.921875 C 3.457031 -6.878906 3.554688 -6.816406 3.640625 -6.734375 C 3.722656 -6.660156 3.785156 -6.566406 3.828125 -6.453125 C 3.878906 -6.335938 3.90625 -6.21875 3.90625 -6.09375 Z M 3.90625 -6.09375 "/></g></g></g><g fill="#ffffff" fill-opacity="1"><g transform="translate(29.706872, 8.274514)"><g><path d="M 5.34375 -2.296875 C 5.34375 -1.898438 5.273438 -1.550781 5.140625 -1.25 C 5.015625 -0.957031 4.835938 -0.707031 4.609375 -0.5 C 4.378906 -0.289062 4.117188 -0.132812 3.828125 -0.03125 C 3.535156 0.0703125 3.226562 0.125 2.90625 0.125 C 2.582031 0.125 2.269531 0.0703125 1.96875 -0.03125 C 1.675781 -0.132812 1.414062 -0.289062 1.1875 -0.5 C 0.96875 -0.707031 0.789062 -0.957031 0.65625 -1.25 C 0.519531 -1.550781 0.453125 -1.898438 0.453125 -2.296875 L 0.453125 -2.40625 C 0.453125 -2.789062 0.519531 -3.132812 0.65625 -3.4375 C 0.789062 -3.738281 0.96875 -3.992188 1.1875 -4.203125 C 1.414062 -4.410156 1.675781 -4.566406 1.96875 -4.671875 C 2.269531 -4.785156 2.582031 -4.84375 2.90625 -4.84375 C 3.226562 -4.84375 3.535156 -4.785156 3.828125 -4.671875 C 4.117188 -4.566406 4.378906 -4.410156 4.609375 -4.203125 C 4.835938 -3.992188 5.015625 -3.738281 5.140625 -3.4375 C 5.273438 -3.132812 5.34375 -2.789062 5.34375 -2.40625 Z M 2.90625 -1 C 3.070312 -1 3.226562 -1.023438 3.375 -1.078125 C 3.53125 -1.140625 3.664062 -1.222656 3.78125 -1.328125 C 3.894531 -1.441406 3.984375 -1.578125 4.046875 -1.734375 C 4.117188 -1.890625 4.15625 -2.0625 4.15625 -2.25 L 4.15625 -2.453125 C 4.15625 -2.640625 4.117188 -2.8125 4.046875 -2.96875 C 3.984375 -3.125 3.894531 -3.253906 3.78125 -3.359375 C 3.664062 -3.472656 3.53125 -3.554688 3.375 -3.609375 C 3.226562 -3.671875 3.070312 -3.703125 2.90625 -3.703125 C 2.726562 -3.703125 2.5625 -3.671875 2.40625 -3.609375 C 2.257812 -3.554688 2.128906 -3.472656 2.015625 -3.359375 C 1.898438 -3.253906 1.8125 -3.125 1.75 -2.96875 C 1.6875 -2.8125 1.65625 -2.640625 1.65625 -2.453125 L 1.65625 -2.25 C 1.65625 -2.0625 1.6875 -1.890625 1.75 -1.734375 C 1.8125 -1.578125 1.898438 -1.441406 2.015625 -1.328125 C 2.128906 -1.222656 2.257812 -1.140625 2.40625 -1.078125 C 2.5625 -1.023438 2.726562 -1 2.90625 -1 Z M 2.90625 -1 "/></g></g></g><g fill="#ffffff" fill-opacity="1"><g transform="translate(35.512763, 8.274514)"><g><path d="M 1.9375 0 L 0.734375 0 L 0.734375 -4.703125 L 1.9375 -4.703125 L 1.9375 -4 L 2.109375 -4 C 2.210938 -4.269531 2.382812 -4.476562 2.625 -4.625 C 2.863281 -4.769531 3.144531 -4.84375 3.46875 -4.84375 C 3.695312 -4.84375 3.910156 -4.804688 4.109375 -4.734375 C 4.304688 -4.660156 4.476562 -4.546875 4.625 -4.390625 C 4.78125 -4.234375 4.898438 -4.039062 4.984375 -3.8125 C 5.078125 -3.582031 5.125 -3.304688 5.125 -2.984375 L 5.125 0 L 3.921875 0 L 3.921875 -2.671875 C 3.921875 -3.003906 3.835938 -3.265625 3.671875 -3.453125 C 3.515625 -3.648438 3.285156 -3.75 2.984375 -3.75 C 2.628906 -3.75 2.363281 -3.628906 2.1875 -3.390625 C 2.019531 -3.160156 1.9375 -2.847656 1.9375 -2.453125 Z M 1.9375 0 "/></g></g></g><g fill="#ffffff" fill-opacity="1"><g transform="translate(0.677419, 23.951822)"><g><path d="M 0.875 -11.609375 L 9.140625 -11.609375 L 9.140625 -8.03125 L 2.578125 -2.390625 L 2.578125 -2.09375 L 9.34375 -2.09375 L 9.34375 0 L 0.78125 0 L 0.78125 -3.578125 L 7.34375 -9.21875 L 7.34375 -9.53125 L 0.875 -9.53125 Z M 0.875 -11.609375 "/></g></g></g><g fill="#ffffff" fill-opacity="1"><g transform="translate(10.830473, 23.951822)"><g><path d="M 3.140625 -3.4375 C 3.148438 -3.1875 3.207031 -2.957031 3.3125 -2.75 C 3.414062 -2.550781 3.554688 -2.378906 3.734375 -2.234375 C 3.921875 -2.085938 4.132812 -1.972656 4.375 -1.890625 C 4.613281 -1.804688 4.863281 -1.765625 5.125 -1.765625 C 5.644531 -1.765625 6.039062 -1.851562 6.3125 -2.03125 C 6.59375 -2.21875 6.796875 -2.4375 6.921875 -2.6875 L 8.71875 -1.6875 C 8.613281 -1.476562 8.472656 -1.257812 8.296875 -1.03125 C 8.117188 -0.8125 7.890625 -0.601562 7.609375 -0.40625 C 7.328125 -0.21875 6.984375 -0.0664062 6.578125 0.046875 C 6.171875 0.171875 5.695312 0.234375 5.15625 0.234375 C 4.539062 0.234375 3.976562 0.132812 3.46875 -0.0625 C 2.957031 -0.257812 2.515625 -0.546875 2.140625 -0.921875 C 1.773438 -1.304688 1.488281 -1.769531 1.28125 -2.3125 C 1.082031 -2.851562 0.984375 -3.460938 0.984375 -4.140625 L 0.984375 -4.25 C 0.984375 -4.875 1.085938 -5.445312 1.296875 -5.96875 C 1.515625 -6.488281 1.8125 -6.929688 2.1875 -7.296875 C 2.5625 -7.660156 3 -7.945312 3.5 -8.15625 C 4.007812 -8.363281 4.550781 -8.46875 5.125 -8.46875 C 5.832031 -8.46875 6.441406 -8.34375 6.953125 -8.09375 C 7.460938 -7.84375 7.882812 -7.523438 8.21875 -7.140625 C 8.550781 -6.765625 8.789062 -6.34375 8.9375 -5.875 C 9.09375 -5.414062 9.171875 -4.972656 9.171875 -4.546875 L 9.171875 -3.4375 Z M 5.109375 -6.578125 C 4.578125 -6.578125 4.144531 -6.441406 3.8125 -6.171875 C 3.476562 -5.898438 3.265625 -5.585938 3.171875 -5.234375 L 7.046875 -5.234375 C 6.984375 -5.617188 6.773438 -5.9375 6.421875 -6.1875 C 6.078125 -6.445312 5.640625 -6.578125 5.109375 -6.578125 Z M 5.109375 -6.578125 "/></g></g></g><g fill="#ffffff" fill-opacity="1"><g transform="translate(20.983526, 23.951822)"><g><path d="M 0.890625 -8.234375 L 4.375 -8.234375 L 4.375 -7.03125 L 4.671875 -7.03125 C 4.828125 -7.488281 5.09375 -7.84375 5.46875 -8.09375 C 5.84375 -8.34375 6.285156 -8.46875 6.796875 -8.46875 C 7.617188 -8.46875 8.28125 -8.207031 8.78125 -7.6875 C 9.28125 -7.175781 9.53125 -6.394531 9.53125 -5.34375 L 9.53125 -4.984375 L 7.375 -4.78125 L 7.375 -5.015625 C 7.375 -5.460938 7.253906 -5.820312 7.015625 -6.09375 C 6.785156 -6.363281 6.4375 -6.5 5.96875 -6.5 C 5.507812 -6.5 5.144531 -6.335938 4.875 -6.015625 C 4.613281 -5.703125 4.484375 -5.242188 4.484375 -4.640625 L 4.484375 -1.984375 L 6.375 -1.984375 L 6.375 0 L 0.703125 0 L 0.703125 -1.984375 L 2.390625 -1.984375 L 2.390625 -6.234375 L 0.890625 -6.234375 Z M 0.890625 -8.234375 "/></g></g></g><g fill="#ffffff" fill-opacity="1"><g transform="translate(31.13658, 23.951822)"><g><path d="M 9.359375 -4.015625 C 9.359375 -3.328125 9.238281 -2.71875 9 -2.1875 C 8.769531 -1.664062 8.457031 -1.222656 8.0625 -0.859375 C 7.664062 -0.503906 7.207031 -0.234375 6.6875 -0.046875 C 6.175781 0.140625 5.640625 0.234375 5.078125 0.234375 C 4.515625 0.234375 3.972656 0.140625 3.453125 -0.046875 C 2.941406 -0.234375 2.488281 -0.503906 2.09375 -0.859375 C 1.695312 -1.222656 1.378906 -1.664062 1.140625 -2.1875 C 0.910156 -2.71875 0.796875 -3.328125 0.796875 -4.015625 L 0.796875 -4.21875 C 0.796875 -4.894531 0.910156 -5.492188 1.140625 -6.015625 C 1.378906 -6.535156 1.695312 -6.976562 2.09375 -7.34375 C 2.488281 -7.71875 2.941406 -8 3.453125 -8.1875 C 3.972656 -8.375 4.515625 -8.46875 5.078125 -8.46875 C 5.640625 -8.46875 6.175781 -8.375 6.6875 -8.1875 C 7.207031 -8 7.664062 -7.71875 8.0625 -7.34375 C 8.457031 -6.976562 8.769531 -6.535156 9 -6.015625 C 9.238281 -5.492188 9.359375 -4.894531 9.359375 -4.21875 Z M 5.078125 -1.765625 C 5.378906 -1.765625 5.660156 -1.8125 5.921875 -1.90625 C 6.191406 -2.007812 6.425781 -2.15625 6.625 -2.34375 C 6.820312 -2.53125 6.976562 -2.757812 7.09375 -3.03125 C 7.207031 -3.300781 7.265625 -3.609375 7.265625 -3.953125 L 7.265625 -4.28125 C 7.265625 -4.625 7.207031 -4.929688 7.09375 -5.203125 C 6.976562 -5.472656 6.820312 -5.703125 6.625 -5.890625 C 6.425781 -6.078125 6.191406 -6.21875 5.921875 -6.3125 C 5.660156 -6.414062 5.378906 -6.46875 5.078125 -6.46875 C 4.773438 -6.46875 4.488281 -6.414062 4.21875 -6.3125 C 3.957031 -6.21875 3.726562 -6.078125 3.53125 -5.890625 C 3.332031 -5.703125 3.175781 -5.472656 3.0625 -5.203125 C 2.945312 -4.929688 2.890625 -4.625 2.890625 -4.28125 L 2.890625 -3.953125 C 2.890625 -3.609375 2.945312 -3.300781 3.0625 -3.03125 C 3.175781 -2.757812 3.332031 -2.53125 3.53125 -2.34375 C 3.726562 -2.15625 3.957031 -2.007812 4.21875 -1.90625 C 4.488281 -1.8125 4.773438 -1.765625 5.078125 -1.765625 Z M 5.078125 -1.765625 "/></g></g></g></svg>